<?xml version="1.0" standalone="no"?>
<!DOCTYPE svg PUBLIC "-//W3C//DTD SVG 20010904//EN"
 "http://www.w3.org/TR/2001/REC-SVG-20010904/DTD/svg10.dtd">
<svg version="1.0" xmlns="http://www.w3.org/2000/svg"
 width="113.000000pt" height="104.000000pt" viewBox="0 0 113.000000 104.000000"
 preserveAspectRatio="xMidYMid meet">

<g transform="translate(0.000000,104.000000) scale(0.100000,-0.100000)"
fill="#000000" stroke="none">
<path d="M0 520 l0 -520 565 0 565 0 0 520 0 520 -565 0 -565 0 0 -520z m736
426 c60 -27 184 -106 184 -117 0 -3 -25 -34 -55 -69 -40 -46 -52 -67 -44 -76
5 -6 56 -44 113 -83 l103 -71 -8 -53 c-23 -171 -64 -258 -156 -328 -79 -60
-164 -89 -278 -96 -106 -6 -178 6 -261 46 -133 65 -186 160 -219 393 l-6 46
127 79 c70 43 129 84 131 90 2 6 -22 38 -53 72 -54 59 -56 62 -38 76 30 22
180 96 226 111 64 21 163 12 234 -20z"/>
<path d="M400 682 c0 -5 39 -46 86 -93 l86 -84 -98 -92 c-68 -63 -96 -95 -89
-102 7 -7 67 44 193 165 100 97 182 180 182 185 0 23 -30 3 -97 -63 l-73 -73
-83 83 c-75 74 -107 97 -107 74z"/>
<path d="M723 540 c-46 -43 -83 -83 -83 -88 0 -6 34 -42 77 -81 51 -49 79 -69
86 -62 7 7 -13 32 -62 77 l-72 66 81 75 c44 41 80 79 80 84 0 23 -31 2 -107
-71z"/>
</g>
</svg>
